# xmcd
#
# Track frame offsets:
#	150
#	34296
#	68024
#	119129
#	150195
#	196506
#
# Disc length: 3081 seconds
#
# Revision: 0
# Processed by: cddbd v1.5.2PL0 Copyright (c) Steve Scherf et al.
# Submitted via: audiograbber 1.83.01
#
DISCID=450c0706
DTITLE=Savoy Brown - Live at the House of Blues # 1
DYEAR=2000
DGENRE=Blues Rock
TTITLE0=Too Much Of A Good Thing
TTITLE1=A Hard Way To Go
TTITLE2=Little Red Rooster
TTITLE3=I'm Tired
TTITLE4=Stay While The Night Is Young
TTITLE5=Mississippi Steamboat
EXTD=
EXTT0=
EXTT1=
EXTT2=
EXTT3=
EXTT4=
EXTT5=
PLAYORDER=
